<svg xmlns="http://www.w3.org/2000/svg" width="24" height="24" viewBox="0 0 24 24.0076">
    <g fill="#515458" fill-rule="nonzero">
  <path d="M16.9414 5.0513c-2.747-2.7227-7.1982-2.7017-9.92.0454-2.6967 2.7221-2.6972 7.1518 0 9.876 1.5705 1.5703 2.066 2.9485 2.2274 3.662-.2099.0834-.348.2938-.3147.5264.0307.216.1969.3719.399.4123v.7684c-.2589.0514-.4373.2933-.3995.5566.0308.2162.1971.372.3994.4124v.0173c0 .4893.1417.942.372 1.3369a.4853.4853 0 0 0 .0373.0685c.472.7574 1.3059 1.2665 2.2621 1.2665 1.1113 0 2.0646-.6826 2.4666-1.6503l.2194-.0314a.5.5 0 0 0 .4248-.5654c-.0336-.2296-.2231-.3885-.4403-.4161 0-.003.0009-.0057.0009-.0087v-.745l.0146-.002c.2735-.0391.4639-.293.4248-.5655-.0336-.2302-.2226-.3897-.4394-.4168v-.4338c0-.0048.0052-.1267.044-.3357.245-.062.4124-.2934.3759-.548-.0158-.108-.0715-.196-.1422-.2686.283-.7746.8534-1.8601 2.0348-3.042 2.7217-2.7476 2.7012-7.1973-.0469-9.9194zm-3.2651 14.1035c0 .0009-.0005.0016-.0005.0024v.5585l-3.3428.4779v-.7268l3.3537-.4794a2.3036 2.3036 0 0 0-.011.165c0 .0008.0006.0016.0006.0024zM12.0043 23c-.2737 0-.5285-.0725-.7569-.1898l1.9037-.272c-.2998.2844-.702.4618-1.1467.4618zm1.6715-1.6719c0 .0434-.0096.0841-.0128.1267l-3.2183.4596c-.069-.1832-.1117-.3793-.1117-.5863v-.124l3.3428-.478v.602zm.2368-3.3833l-3.6706.5246c-.1863-.8657-.7569-2.4472-2.5106-4.2018-2.3125-2.3345-2.312-6.1324 0-8.4668 2.3345-2.355 6.1514-2.373 8.5069-.0396 2.3555 2.334 2.374 6.15.043 8.5044-1.4345 1.434-2.079 2.7678-2.3687 3.6792z"/>
  <path d="M13.873 8.102c-.539 0-1.0234.2994-1.2656.7818l-.3901.793c-.0318.0957-.1206.161-.2041.1626-.1006-.0015-.1895-.067-.2486-.2295l-.3632-.7266c-.2945-.5879-1.0035-.895-1.6084-.7388a1.4032 1.4032 0 0 0-.8702.6446c-.1943.3237-.251.704-.1538 1.0908l1.4532 4.9433c.078.2647.354.418.6206.339a.4994.4994 0 0 0 .3383-.6202L9.7334 9.6177a.416.416 0 0 1 .3018-.5034c.001 0 .1-.0123.101-.0123a.413.413 0 0 1 .3711.229l.3355.6592c.1645.499.6279.8399 1.1704.8491.5254-.0092.9888-.35 1.1264-.7822l.3623-.7256a.412.412 0 0 1 .3711-.2295c.2286 0 .415.186.415.4146a.5947.5947 0 0 1-.0068.081l-1.453 4.9444a.4993.4993 0 0 0 .3388.62.5002.5002 0 0 0 .1406.0206.4995.4995 0 0 0 .4795-.3594l1.46-4.9673a1.4492 1.4492 0 0 0 .041-.3393c0-.7798-.6348-1.4146-1.415-1.4146zM21.4668 9.462h-.9307c-.2763 0-.5.2235-.5.5s.2237.5.5.5h.9307c.2764 0 .5-.2237.5-.5s-.2236-.5-.5-.5zM3.4727 9.462h-.9302c-.2764 0-.5.2235-.5.5s.2236.5.5.5h.9302c.2763 0 .5-.2237.5-.5s-.2237-.5-.5-.5zM12.004 1.9302c.2763 0 .5-.2237.5-.5V.5c0-.2764-.2237-.5-.5-.5s-.5.2236-.5.5v.9302c0 .2763.2235.5.5.5zM18.4629 2.7969l-.6963.6958a.4998.4998 0 0 0 .3535.8535.4984.4984 0 0 0 .3535-.1465l.6963-.6958c.1953-.1948.1953-.5117 0-.707s-.5117-.1953-.707 0zM5.5596 15.7002l-.7202.7197a.4998.4998 0 0 0 .3535.8535.4984.4984 0 0 0 .3535-.1465l.7202-.7197c.1953-.1953.1953-.5117 0-.707s-.5117-.1953-.707 0zM18.4639 15.7139c-.1953-.1954-.5117-.1954-.707 0s-.1954.5117 0 .707l.706.706c.0977.0977.2256.1465.3535.1465s.2559-.0488.3535-.1465a.4998.4998 0 0 0 0-.707l-.706-.706zM5.6284 4.293c.0977.0976.2256.1464.3535.1464s.2559-.0488.3535-.1464a.4998.4998 0 0 0 0-.707l-.789-.7891c-.1953-.1953-.5117-.1953-.707 0s-.1954.5117 0 .707l.789.789z"/>
    </g>
</svg>