<svg xmlns="http://www.w3.org/2000/svg" xmlns:xlink="http://www.w3.org/1999/xlink" width="30px" height="30px" viewBox="0 0 30 30" version="1.1">
    <g id="Symbols" stroke="none" stroke-width="1" fill="none" fill-rule="evenodd">
        <g id="icons/settings" fill-rule="nonzero" fill="red">
            <g id="icon-settings">
                <path d="M14.9975,9.2075 C11.79375,9.2075 9.1875,11.81375 9.1875,15.0175 C9.1875,18.22 11.79375,20.82625 14.9975,20.82625 C18.2,20.82625 20.80625,18.22 20.80625,15.0175 C20.8075,11.81375 18.20125,9.2075 14.9975,9.2075 Z M14.9975,19.5775 C12.4825,19.5775 10.4375,17.53125 10.4375,15.01875 C10.4375,12.50375 12.4825,10.45875 14.9975,10.45875 C17.51125,10.45875 19.55625,12.50375 19.55625,15.01875 C19.5575,17.53125 17.51125,19.5775 14.9975,19.5775 Z" id="Shape"/>
                <path d="M29.47875,12.9975 C29.44,12.71875 29.22,12.5 28.94,12.46375 L25.56625,12.02125 C25.33375,11.2025 25.0075,10.4125 24.59,9.66625 L26.66625,6.965 C26.8375,6.7425 26.83875,6.43125 26.66875,6.2075 C25.85375,5.1275 24.89125,4.16625 23.81375,3.35 C23.5875,3.18125 23.27875,3.18125 23.05625,3.3525 L20.35625,5.4275 C19.60875,5.00875 18.82,4.68125 17.99875,4.44875 L17.55625,1.07375 C17.52,0.795 17.30125,0.575 17.02125,0.53625 C15.64625,0.345 14.36375,0.34375 12.985,0.535 C12.705,0.5725 12.4875,0.79375 12.45,1.0725 L12.0075,4.4475 C11.185,4.68 10.39375,5.0075 9.645,5.42625 L6.945,3.35 C6.72,3.17875 6.41125,3.1775 6.1875,3.3475 C5.12375,4.1525 4.13625,5.13875 3.3325,6.20125 C3.16125,6.42625 3.1625,6.73625 3.33375,6.96 L5.40875,9.66 C4.99,10.4075 4.66125,11.2 4.4275,12.02375 L1.0525,12.46625 C0.77375,12.5025 0.55375,12.72125 0.515,13 C0.33,14.34 0.33,15.6975 0.515,17.03625 C0.55375,17.31625 0.77375,17.53375 1.0525,17.57125 L4.4275,18.01375 C4.66,18.8375 4.98875,19.63 5.40875,20.37875 L3.33375,23.07875 C3.1625,23.3025 3.16125,23.6125 3.33125,23.83625 C4.1375,24.89875 5.125,25.88625 6.1875,26.68875 C6.41125,26.85875 6.72125,26.85625 6.945,26.685 L9.64625,24.61 C10.39375,25.02875 11.185,25.3575 12.00875,25.58875 L12.45,28.9625 C12.48625,29.2425 12.705,29.4625 12.985,29.50125 C13.6725,29.59625 14.33625,29.6425 14.99875,29.6425 C15.665,29.6425 16.33125,29.595 17.02125,29.5 C17.30125,29.4625 17.51875,29.24125 17.55625,28.9625 L17.99875,25.58625 C18.81875,25.3525 19.60875,25.02625 20.35625,24.6075 L23.05625,26.6825 C23.28,26.855 23.59125,26.85375 23.81375,26.685 C24.89,25.87125 25.8525,24.90875 26.66875,23.82875 C26.83875,23.60375 26.8375,23.29375 26.66625,23.07125 L24.59125,20.37125 C25.00875,19.6225 25.33625,18.83375 25.56625,18.015 L28.94125,17.5725 C29.22,17.53625 29.44,17.3175 29.47875,17.0375 C29.67,15.65875 29.67,14.375 29.47875,12.9975 Z M28.29875,16.395 L24.9875,16.82875 C24.73125,16.8625 24.5225,17.05125 24.46125,17.30375 C24.22625,18.2825 23.8375,19.22125 23.30625,20.09125 C23.1725,20.3125 23.18625,20.5925 23.34375,20.7975 L25.38,23.44625 C24.7975,24.16125 24.14625,24.81375 23.4325,25.395 L20.78375,23.35875 C20.57625,23.20125 20.2975,23.185 20.07625,23.32125 C19.21,23.85375 18.27125,24.2425 17.2875,24.48 C17.03625,24.54125 16.8475,24.75 16.81375,25.00625 L16.38,28.31875 C15.45,28.415 14.55625,28.41375 13.62625,28.32 L13.1925,25.01125 C13.15875,24.75375 12.97125,24.545 12.71875,24.48375 C11.7325,24.2475 10.7925,23.8575 9.925,23.325 C9.705,23.1925 9.4225,23.205 9.2175,23.3625 L6.5675,25.39875 C5.86125,24.8225 5.19875,24.16125 4.62125,23.4525 L6.65625,20.805 C6.81375,20.6 6.82875,20.3175 6.69375,20.0975 C6.16125,19.22875 5.77,18.28875 5.53375,17.30125 C5.47375,17.05 5.26375,16.86125 5.0075,16.8275 L1.6975,16.39375 C1.60375,15.48 1.60375,14.5575 1.6975,13.6425 L5.0075,13.20875 C5.26375,13.175 5.47375,12.9875 5.53375,12.735 C5.77,11.7475 6.16125,10.8075 6.69375,9.93875 C6.82875,9.7175 6.815,9.43625 6.65625,9.23125 L4.62125,6.5825 C5.19875,5.87625 5.86,5.21375 6.56875,4.6375 L9.2175,6.6725 C9.4225,6.83125 9.705,6.84625 9.925,6.71 C10.79375,6.17875 11.73375,5.78875 12.71875,5.5525 C12.97,5.4925 13.15875,5.2825 13.1925,5.02625 L13.62625,1.71625 C14.55875,1.62 15.45,1.62 16.38,1.7175 L16.81375,5.02875 C16.8475,5.285 17.03625,5.495 17.2875,5.555 C18.27125,5.79125 19.21,6.18125 20.07625,6.7125 C20.29875,6.84625 20.57625,6.8325 20.78375,6.675 L23.4325,4.63875 C24.145,5.22 24.79875,5.8725 25.38,6.5875 L23.3425,9.2375 C23.185,9.4425 23.17,9.72375 23.305,9.945 C23.8375,10.8125 24.225,11.75125 24.46125,12.7325 C24.5225,12.985 24.73125,13.1725 24.98875,13.20625 L28.29875,13.64 C28.39625,14.57 28.39625,15.46375 28.29875,16.395 Z" id="Shape"/>
            </g>
        </g>
    </g>
</svg>